HIERARCHY
ROOT Hips
{
	OFFSET 0.000000 0.000000 0.000000
	CHANNELS 6 Xposition Yposition Zposition Xrotation Yrotation Zrotation
	JOINT LeftUpLeg_virtual
	{
		OFFSET 0.000000 0.000000 0.000000
		CHANNELS 3 Xrotation Yrotation Zrotation
		JOINT LeftUpLeg
		{
			OFFSET 13.026900 -6.336304 -1.092800
			CHANNELS 3 Xrotation Yrotation Zrotation
			JOINT LeftLeg
			{
				OFFSET 0.524474 -46.096886 9.782700
				CHANNELS 3 Xrotation Yrotation Zrotation
				JOINT LeftFoot
				{
					OFFSET -0.524474 -53.427422 -12.948200
					CHANNELS 3 Xrotation Yrotation Zrotation
					JOINT LeftToeBase
					{
						OFFSET 0.192200 -14.009700 16.364100
						CHANNELS 3 Xrotation Yrotation Zrotation
						JOINT LeftToe_End
						{
							OFFSET -1.784700 -0.561700 9.474800
							CHANNELS 3 Xrotation Yrotation Zrotation
							End Site
							{
								OFFSET 0 0 0
							}
						}
					}
				}
			}
		}
	}
	JOINT RightUpLeg_virtual
	{
		OFFSET 0.000000 0.000000 0.000000
		CHANNELS 3 Xrotation Yrotation Zrotation
		JOINT RightUpLeg
		{
			OFFSET -12.883000 -6.336304 -1.092800
			CHANNELS 3 Xrotation Yrotation Zrotation
			JOINT RightLeg
			{
				OFFSET -0.524587 -46.096825 9.782800
				CHANNELS 3 Xrotation Yrotation Zrotation
				JOINT RightFoot
				{
					OFFSET 0.524587 -53.427383 -12.948300
					CHANNELS 3 Xrotation Yrotation Zrotation
					JOINT RightToeBase
					{
						OFFSET -0.192200 -14.009700 16.364100
						CHANNELS 3 Xrotation Yrotation Zrotation
						JOINT RightToe_End
						{
							OFFSET 1.784700 -0.561700 9.474800
							CHANNELS 3 Xrotation Yrotation Zrotation
							End Site
							{
								OFFSET 0 0 0
							}
						}
					}
				}
			}
		}
	}
	JOINT Spine_virtual
	{
		OFFSET 0.000000 0.000000 0.000000
		CHANNELS 3 Xrotation Yrotation Zrotation
		JOINT Spine
		{
			OFFSET 0.072000 7.257294 -0.789700
			CHANNELS 3 Xrotation Yrotation Zrotation
			JOINT Spine1
			{
				OFFSET 0.000000 12.508769 -0.658067
				CHANNELS 3 Xrotation Yrotation Zrotation
				JOINT Spine1_split
				{
					OFFSET 0.000000 12.508769 -0.658067
					CHANNELS 3 Xrotation Yrotation Zrotation
					JOINT Spine2
					{
						OFFSET 0.000000 12.508769 -0.658067
						CHANNELS 3 Xrotation Yrotation Zrotation
						JOINT Neck_virtual
						{
							OFFSET 0.000000 0.000000 0.000000
							CHANNELS 3 Xrotation Yrotation Zrotation
							JOINT Neck
							{
								OFFSET 0.000000 14.033295 7.520400
								CHANNELS 3 Xrotation Yrotation Zrotation
								JOINT Head
								{
									OFFSET 0.000000 8.198502 5.703100
									CHANNELS 3 Xrotation Yrotation Zrotation
									JOINT HeadTop_End
									{
										OFFSET 0.000000 17.760803 13.332701
										CHANNELS 3 Xrotation Yrotation Zrotation
										End Site
										{
											OFFSET 0 0 0
										}
									}
								}
							}
						}
						JOINT LeftShoulder_virtual
						{
							OFFSET 0.000000 0.000000 0.000000
							CHANNELS 3 Xrotation Yrotation Zrotation
							JOINT LeftShoulder
							{
								OFFSET 6.292450 5.785301 -0.669000
								CHANNELS 3 Xrotation Yrotation Zrotation
								JOINT LeftShoulder_split
								{
									OFFSET 6.292450 5.785301 -0.669000
									CHANNELS 3 Xrotation Yrotation Zrotation
									JOINT LeftArm
									{
										OFFSET 13.907140 -6.093903 1.965100
										CHANNELS 3 Xrotation Yrotation Zrotation
										JOINT LeftForeArm
										{
											OFFSET 34.140198 0.000000 0.000000
											CHANNELS 3 Xrotation Yrotation Zrotation
											JOINT LeftHand
											{
												OFFSET 40.960209 0.000000 0.000000
												CHANNELS 3 Xrotation Yrotation Zrotation
												End Site
												{
													OFFSET 0 0 0
												}
											}
										}
									}
								}
							}
						}
						JOINT RightShoulder_virtual
						{
							OFFSET 0.000000 0.000000 0.000000
							CHANNELS 3 Xrotation Yrotation Zrotation
							JOINT RightShoulder
							{
								OFFSET -6.292450 5.785301 -0.669000
								CHANNELS 3 Xrotation Yrotation Zrotation
								JOINT RightShoulder_split
								{
									OFFSET -6.292450 5.785301 -0.669000
									CHANNELS 3 Xrotation Yrotation Zrotation
									JOINT RightArm
									{
										OFFSET -13.907140 -6.093903 1.965100
										CHANNELS 3 Xrotation Yrotation Zrotation
										JOINT RightForeArm
										{
											OFFSET -34.140198 0.000000 0.000000
											CHANNELS 3 Xrotation Yrotation Zrotation
											JOINT RightHand
											{
												OFFSET -40.960209 0.000000 0.000000
												CHANNELS 3 Xrotation Yrotation Zrotation
												End Site
												{
													OFFSET 0 0 0
												}
											}
										}
									}
								}
							}
						}
					}
				}
			}
		}
	}
}
MOTION
Frames: 11
Frame Time: 0.03333333
-0.539634 107.954178 0.571728 0.000000 0.000000 0.000000 -6.104505 -43.213927 -4.125679 -28.239747 6.262311 13.301368 32.809886 -15.349165 -0.389560 -1.987201 1.875665 -7.315880 -2.319088 -3.216974 0.802955 0.000000 0.000000 0.000000 -6.104505 -43.213927 -4.125679 -4.001810 -13.266375 -16.999711 31.815943 -8.643401 -0.391846 -19.548958 -4.347005 18.458332 -1.784972 -0.356706 0.333183 0.000000 0.000000 0.000000 -6.104505 -43.213927 -4.125679 5.827373 4.833238 -1.166988 11.836807 9.036861 -3.086774 0.000000 0.000000 0.000000 0.000000 0.000000 0.000000 11.836806 9.036862 -3.086780 -4.023269 -0.974177 0.382903 -6.479894 20.161241 -0.594156 0.000000 0.000000 0.000000 11.836806 9.036862 -3.086780 1.392486 -0.696034 -7.877869 0.000000 0.000000 0.000000 -14.270851 2.385512 -63.280746 9.855329 -47.499342 5.919331 0.000000 0.000000 0.000000 11.836806 9.036862 -3.086780 1.409758 9.464718 9.801443 0.000000 0.000000 0.000000 1.234152 -24.280850 60.535516 -6.660179 41.888997 8.039916 0.000000 0.000000 0.000000 
-0.459498 107.420845 -0.432716 0.000000 0.000000 0.000000 -3.394681 -40.674470 -3.563139 -32.970426 6.945407 14.653047 33.725521 -11.794073 1.415597 -0.210287 -1.467301 -7.353207 -2.203008 -3.055405 0.763582 0.000000 0.000000 0.000000 -3.394681 -40.674470 -3.563139 -6.125300 -14.329552 -15.221760 33.142793 -7.521163 -1.099698 -20.116999 -4.285560 18.634008 -1.456850 -0.644438 0.637624 0.000000 0.000000 0.000000 -3.394681 -40.674470 -3.563139 5.920995 4.694476 -1.026503 12.004170 8.695477 -2.784136 0.000000 0.000000 0.000000 0.000000 0.000000 0.000000 12.004171 8.695492 -2.784139 -4.402252 -1.432518 -0.308001 -7.743048 19.546108 -0.146668 0.000000 0.000000 0.000000 12.004171 8.695492 -2.784139 1.744176 -1.717852 -6.596198 0.000000 0.000000 0.000000 -9.656334 2.899163 -62.029299 12.853455 -52.487060 6.201629 0.000000 0.000000 0.000000 12.004171 8.695492 -2.784139 1.665583 8.672809 8.386894 0.000000 0.000000 0.000000 -0.517108 -21.343885 59.835059 -0.867259 43.424044 3.841158 0.000000 0.000000 0.000000 
-0.448838 106.499924 -1.796387 0.000000 0.000000 0.000000 -0.445098 -38.160246 -3.280521 -38.803247 7.481323 17.199057 34.590431 -7.270448 2.605298 1.685369 -5.645388 -7.521975 -2.081886 -2.886988 0.722279 0.000000 0.000000 0.000000 -0.445098 -38.160246 -3.280521 -9.503107 -16.719007 -12.329922 35.464002 -5.685238 -4.068176 -20.753967 -4.256961 19.292878 -1.503387 -0.757614 0.989740 0.000000 0.000000 0.000000 -0.445098 -38.160246 -3.280521 6.054811 4.522659 -0.947779 12.238726 8.275166 -2.450793 0.000000 0.000000 0.000000 0.000000 0.000000 0.000000 12.238720 8.275165 -2.450793 -4.719264 -1.744778 -0.984014 -9.495652 19.031747 0.296236 0.000000 0.000000 0.000000 12.238720 8.275165 -2.450793 2.070255 -2.775723 -5.543035 0.000000 0.000000 0.000000 -4.738520 3.304519 -61.853360 16.932095 -58.793360 7.337241 0.000000 0.000000 0.000000 12.238720 8.275165 -2.450793 1.923292 8.317056 6.899303 0.000000 0.000000 0.000000 -1.712079 -18.994022 59.533534 3.482593 44.694907 -0.233145 0.000000 0.000000 0.000000 
-0.548383 104.845375 -3.568066 0.000000 0.000000 0.000000 2.806747 -35.685324 -3.150755 -46.120996 7.894556 20.622908 35.951240 -2.151198 3.458709 3.851270 -10.265758 -7.456062 -1.957519 -2.714160 0.679677 0.000000 0.000000 0.000000 2.806747 -35.685324 -3.150755 -14.280472 -19.532488 -8.774520 39.695308 -3.907698 -8.540607 -21.737874 -4.265602 20.033455 -1.261768 -0.842637 0.580400 0.000000 0.000000 0.000000 2.806747 -35.685324 -3.150755 6.273603 4.311597 -1.018617 12.632941 7.773744 -2.210916 0.000000 0.000000 0.000000 0.000000 0.000000 0.000000 12.632946 7.773741 -2.210913 -6.197448 -2.053147 -1.054634 -10.757917 18.868831 0.448696 0.000000 0.000000 0.000000 12.632946 7.773741 -2.210913 2.357290 -3.333950 -4.567950 0.000000 0.000000 0.000000 -0.673004 4.524652 -59.057340 17.457894 -61.904211 5.584654 0.000000 0.000000 0.000000 12.632946 7.773741 -2.210913 2.065882 7.068650 5.762661 0.000000 0.000000 0.000000 -1.782041 -15.925686 59.508645 8.094057 46.911232 -4.976503 0.000000 0.000000 0.000000 
-0.668087 102.600929 -5.420303 0.000000 0.000000 0.000000 6.415212 -33.253445 -3.123862 -54.290722 7.498553 23.920082 37.740429 2.857934 3.940767 6.536349 -14.945373 -6.761079 -1.831701 -2.539451 0.636365 0.000000 0.000000 0.000000 6.415212 -33.253445 -3.123862 -19.964385 -22.220187 -4.979624 45.277392 -2.562281 -13.643192 -22.561640 -4.397693 20.153619 -0.984622 -0.514491 0.228002 0.000000 0.000000 0.000000 6.415212 -33.253445 -3.123862 6.501088 4.080352 -1.096835 13.039010 7.269546 -1.883572 0.000000 0.000000 0.000000 0.000000 0.000000 0.000000 13.039007 7.269540 -1.883567 -7.709488 -2.284249 -1.179689 -12.495942 18.745475 0.668798 0.000000 0.000000 0.000000 13.039007 7.269540 -1.883567 2.541881 -3.996360 -4.104069 0.000000 0.000000 0.000000 3.844372 5.529224 -58.239411 18.362636 -67.236266 4.145701 0.000000 0.000000 0.000000 13.039007 7.269540 -1.883567 2.225801 6.468776 4.718926 0.000000 0.000000 0.000000 0.566022 -13.018697 59.992885 12.907453 50.137174 -11.237117 0.000000 0.000000 0.000000 
-0.740932 99.696762 -6.951580 0.000000 0.000000 0.000000 10.402265 -30.918774 -3.170864 -63.179018 6.059468 26.086815 40.603248 5.629421 4.318724 9.549450 -18.881718 -6.084397 -1.706167 -2.365245 0.592975 0.000000 0.000000 0.000000 10.402265 -30.918774 -3.170864 -26.157589 -24.389362 -1.627229 51.768138 -1.840501 -18.148808 -23.251692 -4.565768 19.565529 -0.961425 -0.150207 0.312913 0.000000 0.000000 0.000000 10.402265 -30.918774 -3.170864 6.646493 3.883696 -1.068797 13.285836 6.841423 -1.403368 0.000000 0.000000 0.000000 0.000000 0.000000 0.000000 13.285861 6.841417 -1.403371 -8.647356 -2.516309 -1.689420 -15.014450 18.496205 1.149098 0.000000 0.000000 0.000000 13.285861 6.841417 -1.403371 2.771475 -4.632626 -3.461045 0.000000 0.000000 0.000000 6.978035 5.471225 -58.804111 18.912454 -70.132724 2.932064 0.000000 0.000000 0.000000 13.285861 6.841417 -1.403371 2.280020 5.893931 4.366411 0.000000 0.000000 0.000000 4.276423 -9.959381 59.805881 18.289916 53.568798 -18.636723 0.000000 0.000000 0.000000 
-0.755030 95.814392 -8.620838 0.000000 0.000000 0.000000 14.763789 -28.785942 -3.177179 -73.051626 3.602813 26.676914 44.883236 8.107204 5.057513 10.767140 -23.842107 -4.407377 -1.582736 -2.194106 0.550153 0.000000 0.000000 0.000000 14.763789 -28.785942 -3.177179 -33.350461 -26.155731 1.068778 59.224789 -2.292106 -21.617216 -24.350931 -4.656017 18.790189 -0.792112 0.065911 0.304249 0.000000 0.000000 0.000000 14.763789 -28.785942 -3.177179 6.788479 3.745781 -1.035178 13.528814 6.529407 -0.902163 0.000000 0.000000 0.000000 0.000000 0.000000 0.000000 13.528823 6.529411 -0.902170 -11.317944 -2.783778 -2.005706 -16.176075 18.239489 1.489363 0.000000 0.000000 0.000000 13.528823 6.529411 -0.902170 3.007507 -4.900683 -2.564249 0.000000 0.000000 0.000000 8.635937 4.691542 -60.138115 17.523617 -71.588244 0.922456 0.000000 0.000000 0.000000 13.528823 6.529411 -0.902170 2.283574 4.200413 3.283142 0.000000 0.000000 0.000000 6.977826 -5.630670 59.840510 23.111306 56.055868 -25.486216 0.000000 0.000000 0.000000 
-0.810795 91.454170 -10.495502 0.000000 0.000000 0.000000 19.412036 -26.954896 -3.083633 -82.966957 0.123684 25.944349 48.954431 9.750034 5.835262 12.495491 -27.089533 -3.313317 -1.495445 -2.073102 0.519802 0.000000 0.000000 0.000000 19.412036 -26.954896 -3.083633 -41.237865 -27.940716 3.138009 66.440037 -3.888839 -23.857292 -25.741345 -4.723467 18.114715 -0.714231 -0.384448 0.046891 0.000000 0.000000 0.000000 19.412036 -26.954896 -3.083633 6.972793 3.639678 -1.065424 13.859670 6.330718 -0.494757 0.000000 0.000000 0.000000 0.000000 0.000000 0.000000 13.859653 6.330718 -0.494757 -15.861151 -3.091244 -2.047058 -15.870366 18.009409 1.684378 0.000000 0.000000 0.000000 13.859653 6.330718 -0.494757 3.297019 -4.877439 -0.960892 0.000000 0.000000 0.000000 8.676663 3.364655 -62.664090 16.000751 -71.916585 0.422705 0.000000 0.000000 0.000000 13.859653 6.330718 -0.494757 2.221280 1.439778 1.207226 0.000000 0.000000 0.000000 5.805657 -1.954886 60.403024 26.674856 57.052437 -29.189565 0.000000 0.000000 0.000000 
-0.845072 87.403595 -12.375477 0.000000 0.000000 0.000000 24.072643 -25.436270 -2.966581 -92.513519 -2.399520 25.069178 51.944043 10.132347 6.007869 15.049863 -29.187823 -1.492562 -1.459472 -2.023244 0.507297 0.000000 0.000000 0.000000 24.072643 -25.436270 -2.966581 -49.216922 -29.827081 4.581664 72.230637 -6.431333 -25.059206 -26.659492 -4.759984 17.645275 -1.157079 -0.329899 0.225781 0.000000 0.000000 0.000000 24.072643 -25.436270 -2.966581 7.208558 3.501925 -1.175389 14.301715 6.178382 -0.262482 0.000000 0.000000 0.000000 0.000000 0.000000 0.000000 14.301705 6.178380 -0.262481 -21.017896 -3.498628 -1.911157 -15.158001 17.843523 1.901892 0.000000 0.000000 0.000000 14.301705 6.178380 -0.262481 3.442338 -3.744915 1.260617 0.000000 0.000000 0.000000 6.542682 1.007389 -66.460971 16.170917 -69.657459 3.224578 0.000000 0.000000 0.000000 14.301705 6.178380 -0.262481 2.091407 -0.743835 -0.161267 0.000000 0.000000 0.000000 1.113404 -1.509666 60.899380 28.881247 57.126217 -29.758192 0.000000 0.000000 0.000000 
-0.936895 83.717735 -14.061886 0.000000 0.000000 0.000000 28.330805 -24.144937 -2.924630 -101.113547 -4.252863 23.839329 54.181268 9.483313 5.994323 17.791970 -29.919541 0.276821 -1.443495 -2.001343 0.504521 0.000000 0.000000 0.000000 28.330805 -24.144937 -2.924630 -56.773854 -31.610795 5.525389 76.603065 -10.180942 -25.866075 -26.895576 -4.611700 17.586223 -2.583527 -0.137117 0.821911 0.000000 0.000000 0.000000 28.330805 -24.144937 -2.924630 7.524359 3.309352 -1.269424 14.912594 5.989548 -0.069662 0.000000 0.000000 0.000000 0.000000 0.000000 0.000000 14.912606 5.989542 -0.069657 -26.443446 -3.635248 -2.223951 -14.205837 17.434502 2.333117 0.000000 0.000000 0.000000 14.912606 5.989542 -0.069657 3.352746 -1.685409 3.477809 0.000000 0.000000 0.000000 2.557575 -1.587208 -70.953084 15.457075 -65.902392 6.432427 0.000000 0.000000 0.000000 14.912606 5.989542 -0.069657 1.981320 -2.892399 -1.689580 0.000000 0.000000 0.000000 -4.456371 0.262138 62.391128 27.553746 55.168742 -28.652449 0.000000 0.000000 0.000000 
-0.936769 79.019836 -15.274067 0.000000 0.000000 0.000000 31.771038 -23.010340 -2.904327 -109.819094 -6.330050 21.856749 57.873129 8.828832 6.073438 19.971089 -29.823680 1.470140 -1.443289 -2.001081 0.504993 0.000000 0.000000 0.000000 31.771038 -23.010340 -2.904327 -64.433737 -32.998686 5.487526 81.609983 -15.304308 -26.791571 -27.417371 -4.319959 18.182751 -4.494451 -0.173312 1.920836 0.000000 0.000000 0.000000 31.771038 -23.010340 -2.904327 7.611874 3.139974 -1.333585 15.068376 5.694421 0.184954 0.000000 0.000000 0.000000 0.000000 0.000000 0.000000 15.068369 5.694418 0.184960 -29.203679 -3.761596 -2.602298 -14.083557 17.122432 2.823835 0.000000 0.000000 0.000000 15.068369 5.694418 0.184960 3.291812 0.498138 6.749337 0.000000 0.000000 0.000000 -1.270120 -3.682356 -76.661203 12.740839 -61.018424 8.172624 0.000000 0.000000 0.000000 15.068369 5.694418 0.184960 2.172599 -4.982216 -6.289780 0.000000 0.000000 0.000000 -8.386303 5.799626 67.634063 22.097551 52.089133 -26.740986 0.000000 0.000000 0.000000 
